<svg width="290" height="260" viewBox="0 0 290 260" fill="none" xmlns="http://www.w3.org/2000/svg">
<rect width="101.975" height="192.191" rx="12" transform="matrix(0.991925 -0.126828 0.127003 0.991902 13.1099 69.3652)" fill="#6E479E"/>
<rect width="101.977" height="192.188" rx="12" transform="matrix(0.996679 0.0814367 -0.0817086 0.996656 172.088 0)" fill="#6E479E"/>
<path d="M147.508 105.002C146.781 105.002 146.815 108.411 144.937 110.859C143.309 112.983 140.856 113.545 140.856 114.441C140.856 115.264 143.305 115.409 145.062 117.561C146.59 119.432 146.972 122.821 147.66 122.821C148.348 122.821 148.161 119.609 149.945 117.356C151.765 115.059 154.241 115.01 154.241 114.243C154.241 113.46 151.331 112.817 149.817 110.69C148.224 108.45 148.31 105.002 147.508 105.002Z" fill="#F6FCF4"/>
<path d="M134.147 127.912C133.835 127.912 133.849 129.373 133.045 130.422C132.347 131.332 131.296 131.573 131.296 131.957C131.296 132.309 132.345 132.372 133.099 133.294C133.753 134.096 133.917 135.549 134.212 135.549C134.507 135.549 134.426 134.172 135.191 133.207C135.971 132.222 137.032 132.201 137.032 131.872C137.032 131.537 135.785 131.261 135.137 130.35C134.454 129.389 134.491 127.912 134.147 127.912Z" fill="#F6FCF4"/>
<path d="M14.2997 213.823C13.5729 213.823 13.6062 217.232 11.7294 219.679C10.1008 221.804 7.64844 222.365 7.64844 223.262C7.64844 224.085 10.0966 224.23 11.8542 226.382C13.3822 228.253 13.7636 231.642 14.4524 231.642C15.1406 231.642 14.9529 228.43 16.7376 226.177C18.5571 223.881 21.033 223.83 21.033 223.063C21.033 222.281 18.1234 221.638 16.6097 219.511C15.0162 217.271 15.1023 213.823 14.2997 213.823Z" fill="#F6FCF4"/>
<path d="M2.85048 238.642C2.53919 238.642 2.55327 240.103 1.74897 241.152C1.05093 242.062 0 242.302 0 242.687C0 243.039 1.04923 243.102 1.80245 244.024C2.45736 244.826 2.62083 246.278 2.91583 246.278C3.21109 246.278 3.1307 244.902 3.89554 243.936C4.67522 242.952 5.73626 242.931 5.73626 242.602C5.73626 242.267 4.4892 241.991 3.84055 241.079C3.15754 240.12 3.19454 238.642 2.85048 238.642Z" fill="#F6FCF4"/>
<path d="M283.266 175.004C282.54 175.004 282.573 178.413 280.697 180.86C279.067 182.984 276.615 183.546 276.615 184.442C276.615 185.265 279.063 185.411 280.821 187.563C282.349 189.433 282.73 192.823 283.42 192.823C284.107 192.823 283.919 189.61 285.704 187.357C287.524 185.06 290 185.012 290 184.244C290 183.462 287.09 182.818 285.577 180.691C283.983 178.451 284.069 175.004 283.266 175.004Z" fill="#F6FCF4"/>
<path d="M271.817 159.095C271.506 159.095 271.52 160.556 270.716 161.604C270.018 162.514 268.966 162.755 268.966 163.139C268.966 163.492 270.016 163.555 270.769 164.477C271.424 165.278 271.587 166.731 271.883 166.731C272.177 166.731 272.097 165.355 272.861 164.389C273.642 163.404 274.703 163.383 274.703 163.055C274.703 162.72 273.456 162.444 272.807 161.532C272.124 160.572 272.161 159.095 271.817 159.095Z" fill="#F6FCF4"/>
<path d="M239.011 215.096H222.228C220.446 238.09 206.451 242.882 202.378 243.794V237.504L188.022 248.572L202.378 259.642V252.989C234.878 250.427 239.011 215.096 239.011 215.096Z" fill="url(#paint0_linear_70_720)"/>
<path d="M54.1753 46.4556H70.9578C72.7397 23.4614 86.7359 18.6695 90.8077 17.7573V24.048L105.164 12.9786L90.8077 1.90908V8.56165C58.3085 11.1235 54.1753 46.4556 54.1753 46.4556Z" fill="url(#paint1_linear_70_720)"/>
<path d="M248.71 189.004C248.544 189.004 248.377 188.997 248.208 188.982L167.131 181.982C163.975 181.71 161.64 178.942 161.913 175.802L162.944 163.971L167.212 114.955L196.17 97.7518C201.937 103.296 209.856 106.952 218.574 107.825C219.728 107.941 220.874 107.998 222.01 107.998C239.204 107.998 253.938 95.022 255.697 77.6239C256.196 72.6861 255.606 67.8284 254.119 63.324L265.496 56.5648L254.978 177.328L254.416 183.788C254.157 186.762 251.653 189.004 248.71 189.004ZM196.245 135.512L195.904 139.432L230.504 142.42L230.846 138.5L196.245 135.512ZM197.23 124.202L196.889 128.122L250.076 132.714L250.418 128.794L197.23 124.202ZM170.639 75.6146L172.82 50.5703C185.449 43.0371 217.926 23.7874 237.911 12.4583L263.391 14.6581C264.845 14.7837 266.125 15.4392 267.056 16.417L229.538 39.4519C226.687 38.3283 223.635 37.5738 220.433 37.2527C219.279 37.1373 218.133 37.0805 216.997 37.0805C199.803 37.0805 185.068 50.0568 183.31 67.4543C183.296 67.5887 183.284 67.7243 183.272 67.8587L170.639 75.6146ZM174.994 25.6087L176.105 12.8526C176.364 9.8793 178.869 7.63657 181.81 7.63657C181.976 7.63657 182.144 7.64352 182.313 7.65804L206.38 9.73611L174.994 25.6087Z" fill="url(#paint2_linear_70_720)"/>
<path d="M178.977 131.362C178.335 131.053 177.223 132.215 177.187 132.617C177.152 133.018 179.18 135.733 179.331 135.922C179.482 136.111 181.334 136.291 181.54 136.111C181.744 135.93 182.709 131.417 191.188 122.877C191.637 122.423 184.821 124.605 180.46 133.6C180.46 133.6 179.455 131.592 178.977 131.362Z" fill="#6FCEC3"/>
<path d="M249.505 133.003L196.309 128.54L196.65 124.73L249.847 129.193L249.505 133.003Z" fill="url(#paint3_linear_70_720)"/>
<path d="M230.383 142.549L195.67 139.521L196.012 135.549L230.725 138.577L230.383 142.549Z" fill="url(#paint4_linear_70_720)"/>
<path d="M186.906 72.8283C185.023 91.4802 200.068 106.134 218.771 108.011C237.474 109.888 254.162 96.2905 256.044 77.6386C257.927 58.9867 244.379 41.4793 225.676 39.602C206.973 37.7241 188.789 54.177 186.906 72.8283Z" fill="#B5571F"/>
<path d="M183.733 67.2604C181.865 85.793 195.397 102.329 213.958 104.194C232.519 106.059 249.08 92.5482 250.948 74.0156C252.817 55.4835 239.285 38.9473 220.724 37.082C202.162 35.2167 185.601 48.7277 183.733 67.2604Z" fill="#F79722"/>
<path d="M192.483 62.3651C196.066 51.8506 206.083 44.5465 217.491 44.5465C218.376 44.5465 219.272 44.5908 220.171 44.6806C220.504 44.7135 220.835 44.7534 221.164 44.7983L200.964 57.1704C200.673 56.9034 200.266 56.7358 199.853 56.7358C199.419 56.7358 198.979 56.9205 198.66 57.3679C198.202 58.0101 197.779 58.675 197.392 59.3584L192.483 62.3651Z" fill="#F9D632"/>
<path d="M213.458 104.366C213.454 104.366 213.449 104.365 213.445 104.365C213.449 104.365 213.454 104.366 213.458 104.366ZM213.427 104.363C213.422 104.362 213.417 104.362 213.411 104.362C213.417 104.362 213.422 104.362 213.427 104.363ZM213.395 104.36C213.386 104.359 213.377 104.358 213.368 104.357C213.377 104.358 213.386 104.359 213.395 104.36ZM213.353 104.355C213.347 104.355 213.34 104.354 213.333 104.353C213.34 104.354 213.346 104.355 213.353 104.355ZM213.323 104.352C213.316 104.351 213.31 104.351 213.302 104.35C213.309 104.351 213.317 104.351 213.323 104.352ZM213.294 104.349C213.269 104.346 213.245 104.344 213.221 104.341C213.244 104.344 213.27 104.346 213.294 104.349ZM213.218 104.341C213.21 104.34 213.202 104.339 213.193 104.338C213.201 104.339 213.21 104.34 213.218 104.341ZM213.189 104.337C212.804 104.295 212.42 104.246 212.039 104.19C212.42 104.246 212.803 104.295 213.189 104.337ZM212.036 104.19C212.002 104.185 211.969 104.18 211.935 104.175C211.969 104.18 212.002 104.185 212.036 104.19ZM211.928 104.174C211.922 104.173 211.914 104.172 211.907 104.171C211.914 104.172 211.922 104.173 211.928 104.174ZM211.899 104.17C211.876 104.166 211.855 104.163 211.833 104.159C211.855 104.163 211.876 104.166 211.899 104.17ZM211.821 104.158C211.815 104.157 211.809 104.156 211.804 104.155C211.809 104.156 211.816 104.157 211.821 104.158ZM211.787 104.152C211.783 104.152 211.779 104.151 211.775 104.151C211.779 104.151 211.783 104.152 211.787 104.152ZM211.744 104.146C211.743 104.145 211.742 104.145 211.74 104.145C211.742 104.145 211.743 104.145 211.744 104.146ZM211.712 104.141C211.709 104.14 211.706 104.14 211.704 104.14C211.707 104.14 211.709 104.14 211.712 104.141ZM211.679 104.135C211.676 104.135 211.674 104.135 211.672 104.135C211.674 104.135 211.676 104.135 211.679 104.135ZM211.606 104.124H211.604H211.606ZM250.316 73.9076C250.316 73.9044 250.316 73.8993 250.317 73.8961C250.316 73.8999 250.316 73.9037 250.316 73.9076ZM250.319 73.8739C250.32 73.8694 250.32 73.8656 250.32 73.8605C250.32 73.8656 250.32 73.8694 250.319 73.8739ZM250.323 73.8306C250.324 73.8249 250.324 73.8211 250.325 73.8154C250.325 73.8198 250.324 73.8256 250.323 73.8306ZM250.326 73.7989C250.327 73.7919 250.327 73.7881 250.328 73.7811C250.327 73.7874 250.327 73.7925 250.326 73.7989ZM250.33 73.7652C250.33 73.7563 250.331 73.7467 250.332 73.7379C250.331 73.7474 250.33 73.7556 250.33 73.7652ZM250.334 73.7201C250.335 73.7137 250.335 73.7073 250.335 73.7003C250.335 73.7073 250.335 73.7131 250.334 73.7201ZM250.337 73.6895C250.337 73.6819 250.338 73.6762 250.338 73.6679C250.338 73.6756 250.337 73.6819 250.337 73.6895ZM250.339 73.6635C250.34 73.6476 250.342 73.6311 250.343 73.6152C250.342 73.6317 250.34 73.6469 250.339 73.6635ZM250.343 73.6114C250.345 73.6025 250.345 73.5955 250.346 73.5859C250.345 73.5948 250.345 73.6031 250.343 73.6114ZM250.346 73.5834C250.348 73.5561 250.351 73.5306 250.353 73.5033C250.351 73.53 250.348 73.5567 250.346 73.5834ZM250.353 73.5027C250.423 72.7012 250.465 71.9047 250.479 71.1121C250.465 71.9035 250.423 72.7024 250.353 73.5027ZM250.479 71.1096C250.479 71.0842 250.48 71.0594 250.48 71.0333C250.48 71.0587 250.479 71.0842 250.479 71.1096ZM250.48 71.0276C250.48 71.0193 250.48 71.0117 250.48 71.0041C250.48 71.0117 250.48 71.0193 250.48 71.0276ZM250.48 70.9996C250.48 70.985 250.481 70.9717 250.481 70.9571C250.481 70.971 250.48 70.9856 250.48 70.9996ZM250.481 70.9469C250.481 70.9412 250.481 70.9329 250.482 70.9272C250.481 70.9342 250.481 70.9399 250.481 70.9469ZM250.482 70.9126C250.482 70.9068 250.482 70.9024 250.482 70.8967C250.482 70.9024 250.482 70.9068 250.482 70.9126ZM250.482 70.8668C250.482 70.8623 250.482 70.8592 250.482 70.8541C250.482 70.8592 250.482 70.8623 250.482 70.8668ZM250.482 70.8331C250.482 70.828 250.482 70.8255 250.482 70.821C250.482 70.8248 250.482 70.8287 250.482 70.8331ZM250.483 70.795C250.483 70.7924 250.483 70.7899 250.483 70.788C250.483 70.7905 250.483 70.7918 250.483 70.795ZM250.483 70.7549C250.483 70.7524 250.483 70.7492 250.483 70.7473C250.483 70.7492 250.483 70.7524 250.483 70.7549ZM250.484 70.7187C250.484 70.7162 250.484 70.7149 250.484 70.7123C250.484 70.7149 250.484 70.7162 250.484 70.7187ZM250.484 70.6418C250.484 70.6412 250.484 70.6392 250.484 70.638C250.484 70.6399 250.484 70.6405 250.484 70.6418Z" fill="#B74E1E"/>
<path d="M216.847 104.366C215.72 104.366 214.579 104.31 213.434 104.195C213.424 104.195 213.414 104.193 213.403 104.192C213.399 104.192 213.395 104.191 213.39 104.191C213.385 104.19 213.378 104.19 213.373 104.189C213.367 104.188 213.363 104.188 213.357 104.188C213.351 104.187 213.346 104.186 213.34 104.186C213.332 104.185 213.322 104.184 213.313 104.183C213.308 104.183 213.303 104.182 213.298 104.181C213.291 104.181 213.285 104.18 213.278 104.179C213.275 104.179 213.271 104.179 213.268 104.178C213.262 104.178 213.254 104.177 213.247 104.176C213.245 104.176 213.242 104.176 213.239 104.175C213.215 104.173 213.189 104.17 213.166 104.168C213.166 104.167 213.164 104.167 213.163 104.167C213.155 104.166 213.146 104.165 213.138 104.164C213.137 104.164 213.135 104.164 213.134 104.164C212.748 104.122 212.364 104.074 211.983 104.019C211.981 104.019 211.981 104.019 211.98 104.019C211.945 104.014 211.912 104.009 211.878 104.004C211.876 104.004 211.874 104.003 211.871 104.003C211.865 104.002 211.857 104 211.85 104C211.848 103.999 211.844 103.999 211.842 103.999C211.819 103.995 211.798 103.992 211.776 103.989C211.772 103.988 211.768 103.987 211.764 103.987C211.759 103.986 211.752 103.985 211.747 103.984C211.741 103.984 211.736 103.982 211.73 103.982C211.726 103.981 211.722 103.98 211.718 103.98C211.708 103.979 211.697 103.977 211.687 103.975C211.686 103.975 211.684 103.975 211.683 103.975C211.674 103.973 211.664 103.972 211.655 103.97C211.652 103.97 211.65 103.969 211.647 103.969C211.639 103.968 211.63 103.967 211.622 103.965C211.619 103.965 211.617 103.964 211.615 103.964C211.593 103.96 211.571 103.957 211.549 103.954H211.547C205.825 103.059 200.637 100.757 196.307 97.4453L203.45 93.2062C206.63 95.0897 210.265 96.3279 214.191 96.721C215.079 96.8099 215.964 96.8537 216.838 96.8537C230.089 96.855 241.441 86.8676 242.796 73.4755C242.922 72.2342 242.957 71.0029 242.908 69.791L250.06 65.5469C250.346 67.3191 250.491 69.1338 250.483 70.9754C250.483 70.9766 250.483 70.9785 250.483 70.9791C250.483 71.0023 250.483 71.0255 250.483 71.0486C250.483 71.0511 250.483 71.0524 250.483 71.0549C250.483 71.0636 250.483 71.0737 250.482 71.083C250.482 71.0849 250.482 71.0881 250.482 71.0906C250.482 71.1012 250.482 71.1125 250.482 71.1231C250.482 71.125 250.482 71.1275 250.482 71.13C250.482 71.1381 250.482 71.1469 250.481 71.1557C250.481 71.16 250.481 71.1626 250.481 71.1676C250.481 71.1744 250.481 71.1813 250.481 71.1882C250.481 71.1932 250.481 71.1963 250.481 71.2007C250.481 71.2101 250.481 71.2214 250.481 71.2302C250.481 71.2358 250.481 71.2402 250.481 71.2458C250.481 71.2502 250.481 71.2558 250.481 71.2602C250.48 71.2658 250.48 71.274 250.48 71.2796C250.48 71.2827 250.48 71.2865 250.48 71.2896C250.48 71.304 250.479 71.3172 250.479 71.3316C250.479 71.3328 250.479 71.3341 250.479 71.3359C250.479 71.3435 250.479 71.351 250.479 71.3591C250.479 71.361 250.479 71.3622 250.479 71.3647C250.479 71.3904 250.478 71.4148 250.478 71.4398C250.478 71.4411 250.478 71.4411 250.478 71.4424C250.464 72.2229 250.422 73.0073 250.352 73.7966C250.352 73.7979 250.352 73.7966 250.352 73.7973C250.35 73.8242 250.347 73.8492 250.345 73.8761C250.345 73.8774 250.345 73.878 250.345 73.8786C250.344 73.888 250.343 73.8949 250.342 73.9037C250.342 73.9049 250.342 73.9068 250.342 73.9074C250.341 73.9231 250.339 73.9394 250.338 73.955C250.338 73.9556 250.337 73.9588 250.337 73.9594C250.337 73.9675 250.336 73.9732 250.335 73.9807C250.335 73.9838 250.335 73.9882 250.334 73.9913C250.333 73.9982 250.333 74.0045 250.333 74.0107C250.332 74.0164 250.332 74.0226 250.331 74.0283C250.33 74.037 250.329 74.0464 250.328 74.0552C250.328 74.0595 250.327 74.0658 250.326 74.0708C250.326 74.0777 250.326 74.0815 250.325 74.0883C250.325 74.094 250.324 74.099 250.323 74.1046C250.323 74.1103 250.323 74.114 250.322 74.1196C250.321 74.1297 250.32 74.139 250.319 74.1491C250.319 74.1541 250.318 74.1578 250.318 74.1622C250.317 74.1691 250.316 74.1772 250.316 74.1841C250.315 74.1873 250.315 74.1923 250.315 74.1954C250.313 74.206 250.312 74.2173 250.311 74.2279C248.564 91.4923 233.929 104.368 216.847 104.366Z" fill="#F68623"/>
<path d="M216.719 96.7295C215.844 96.7295 214.958 96.6852 214.069 96.5953C210.14 96.1978 206.501 94.9458 203.318 93.0413L213.329 87.0403L214.753 89.7658L220.414 82.7932L242.814 69.3652C242.863 70.5906 242.827 71.8356 242.701 73.0908C241.345 86.6321 229.982 96.7308 216.719 96.7295Z" fill="#FABB29"/>
<path d="M214.926 90.3657L213.516 87.6295L220.527 83.3656L214.926 90.3657Z" fill="#F57E21"/>
<path d="M200.549 47.0919C199.623 47.0919 199.011 45.5898 200 44.8958C204.055 42.0518 208.81 40.4163 213.707 40.0943C213.737 40.0924 213.765 40.0918 213.794 40.0918C215.156 40.0918 215.118 42.311 213.707 42.4033C209.197 42.6997 204.862 44.2768 201.136 46.8892C200.935 47.031 200.735 47.0919 200.549 47.0919Z" fill="#F9AA20"/>
<path d="M221.822 42.6373C220.654 42.6373 219.009 41.9639 218.442 41.9241C216.982 41.822 216.993 39.4549 218.356 39.4549C218.384 39.4549 218.413 39.4563 218.442 39.4583C219.812 39.5536 221.189 39.9242 222.45 40.5018C222.821 40.6717 223.003 40.9375 223.048 41.2294C223.214 42.3139 222.632 42.6373 221.822 42.6373Z" fill="#F9AA20"/>
<path d="M196.945 59.1832C197.359 58.5198 197.812 57.8743 198.302 57.2508C198.644 56.8166 199.115 56.6372 199.58 56.6372C200.021 56.6372 200.457 56.8 200.769 57.0592L196.945 59.1832Z" fill="#FAE750"/>
<path d="M172.725 50.2739L174.896 24.9881L206.244 8.90933L237.736 11.6669C217.776 23.1432 185.338 42.6429 172.725 50.2739Z" fill="url(#paint5_linear_70_720)"/>
<path d="M166.989 114.548L170.413 75.1676L183.036 67.4038C182.049 78.4957 186.564 88.8361 194.354 95.7088C194.857 96.2646 195.381 96.8045 195.924 97.3274L166.989 114.548ZM253.83 62.8644C250.778 53.5989 243.946 45.8237 235.007 41.8982C233.208 40.7507 231.288 39.7662 229.267 38.968L266.757 15.9095C267.845 17.0544 268.455 18.6408 268.308 20.3364L265.198 56.0984L253.83 62.8644Z" fill="url(#paint6_linear_70_720)"/>
<path d="M195.96 97.3658C195.419 96.8436 194.897 96.3042 194.395 95.7491C194.974 96.262 195.574 96.7565 196.189 97.229L195.96 97.3658ZM250.079 65.0844C248.542 55.5047 242.925 47.1241 234.91 42.0009C243.819 45.9219 250.628 53.688 253.67 62.9429L250.079 65.0844Z" fill="#A96D2A"/>
<path d="M196.734 97.3658C196.12 96.8954 195.522 96.4029 194.945 95.8923C187.201 89.0563 182.713 78.7713 183.694 67.7388L192.496 62.3219C191.875 64.1541 191.449 66.0844 191.246 68.0906C190.643 74.0773 192.12 79.7945 195.09 84.5269C192.413 85.0099 189.696 85.3076 186.97 85.4289C189.258 90.1009 192.606 94.1944 196.736 97.3646L196.734 97.3658ZM250.484 65.3564C248.995 56.0983 243.674 47.9678 236.054 42.8322C235.345 45.3963 234.573 47.9502 233.696 50.4602C230.11 47.5495 225.712 45.5564 220.831 44.8825L229.649 39.4554C231.658 40.2494 233.566 41.2286 235.354 42.3699C243.348 47.4716 248.95 55.8169 250.484 65.3564Z" fill="#F9AB29"/>
<path d="M194.559 84.002C191.581 79.2162 190.1 73.4345 190.705 67.3802C190.908 65.3513 191.335 63.3993 191.958 61.5463L196.821 58.5278C194.935 61.9052 193.911 65.7458 193.835 69.6276C193.818 70.5474 194.519 71.0073 195.229 71.0073C195.939 71.0073 196.658 70.5474 196.675 69.6276C196.757 65.4294 198.12 61.3939 200.53 57.9726C200.966 57.3526 200.79 56.7314 200.36 56.3312L220.373 43.9101C225.267 44.5917 229.678 46.6072 233.275 49.5508C231.359 55.0804 228.945 60.3953 225.605 65.129L218.707 50.5996L205.338 68.434L217.417 63.5028L223.667 67.6781C223.385 68.0218 223.098 68.361 222.805 68.697L217.257 65.108L206.088 69.5641L214.173 76.2332C213.486 76.6938 212.788 77.1346 212.08 77.557L205.106 70.7608L209.42 79.0301C204.759 81.4236 199.733 83.0606 194.559 84.002ZM195.666 73.0216C194.829 73.0216 193.937 73.7076 194.179 74.7875C194.396 75.7498 194.747 76.681 195.183 77.564C195.44 78.083 195.813 78.2945 196.195 78.2945C197.069 78.2945 197.993 77.1886 197.69 76.1062C197.487 75.3833 197.055 74.6344 196.918 74.0271C196.761 73.3277 196.226 73.0216 195.666 73.0216Z" fill="#F9DF42"/>
<path d="M214.191 77.0018L205.868 70.5165L217.366 66.1833L223.076 69.6734C222.153 70.6722 221.171 71.6352 220.126 72.5574C218.26 74.2048 216.274 75.6842 214.191 77.0018Z" fill="#F8A023"/>
<path d="M209.568 79.5474L205.231 71.2744L212.242 78.0736C211.365 78.5935 210.474 79.0841 209.568 79.5474Z" fill="#F8A023"/>
<path d="M205.231 68.7289L218.265 50.9103L224.989 65.4268C224.391 66.2956 223.762 67.1461 223.1 67.9736L217.007 63.8021L205.231 68.7289Z" fill="#F8A023"/>
<path d="M196.547 97.3658C192.403 94.1843 189.043 90.076 186.747 85.3872C189.482 85.2655 192.209 84.9667 194.895 84.4819C197.097 87.9888 200.115 90.956 203.715 93.0968L196.547 97.3658ZM243.306 69.5165C242.997 61.8598 239.338 54.9211 233.637 50.2928C234.516 47.7737 235.291 45.2106 236.002 42.6373C243.649 47.7914 248.989 55.9511 250.483 65.2425L243.306 69.5165Z" fill="#F89A26"/>
<path d="M203.22 93.5476C199.618 91.4151 196.598 88.4595 194.395 84.9663C199.576 84.0357 204.608 82.4175 209.274 80.0514L213.26 87.5942L203.22 93.5476ZM220.367 83.3807L227.923 74.1746L215.525 82.0457L211.938 78.5953C212.647 78.1777 213.346 77.7419 214.034 77.2866L215.857 78.7717L227.241 72.7529L222.676 69.8368C222.97 69.5047 223.258 69.1693 223.539 68.8296L228.156 71.8745L225.48 66.3097C228.824 61.6303 231.241 56.3764 233.159 50.9103C238.864 55.5205 242.525 62.4322 242.835 70.0591L220.367 83.3807Z" fill="#FCCA38"/>
<path d="M216.001 78.2745L214.154 76.7937C216.207 75.4582 218.165 73.9586 220.004 72.2887C221.034 71.3538 222.002 70.3777 222.912 69.3652L227.538 72.273L216.001 78.2745Z" fill="#F79323"/>
<path d="M213.643 87.1839L209.692 79.3147C210.586 78.8372 211.466 78.3314 212.332 77.7955L215.887 81.3954L228.175 73.1836L220.686 82.7881L213.643 87.1839Z" fill="#F79323"/>
<path d="M228.176 71.2744L223.714 68.14C224.371 67.2971 224.996 66.431 225.59 65.546L228.176 71.2744Z" fill="#F79323"/>
<path d="M195.164 71.9108C194.447 71.9108 193.74 71.4521 193.758 70.5348C193.834 66.6634 194.867 62.8332 196.771 59.4648L200.342 57.2741C200.776 57.6732 200.954 58.2928 200.514 58.9111C198.082 62.3232 196.706 66.3479 196.624 70.5348C196.606 71.4521 195.881 71.9108 195.164 71.9108Z" fill="#F9ED62"/>
<path d="M196.573 78.9109C196.168 78.9109 195.773 78.7066 195.501 78.2055C195.04 77.3528 194.667 76.4536 194.438 75.5243C194.181 74.4815 195.126 73.819 196.013 73.819C196.606 73.819 197.173 74.1147 197.339 74.79C197.484 75.3764 197.942 76.0997 198.157 76.7977C198.478 77.843 197.499 78.9109 196.573 78.9109Z" fill="#F9ED62"/>
<path d="M246.963 199.6C252.441 200.08 257.255 196.013 257.728 190.548L272.57 19.2877C272.799 16.6402 271.985 14.0616 270.276 12.0267C268.567 9.9919 266.169 8.74521 263.523 8.51534L182.619 1.49567C179.974 1.2702 177.396 2.08174 175.362 3.79135C173.33 5.50096 172.083 7.90085 171.854 10.5489L157.012 181.808C156.538 187.274 160.597 192.106 166.059 192.581L246.963 199.6ZM247.83 200.459C247.519 200.459 247.207 200.445 246.892 200.418L165.988 193.398C160.075 192.886 155.682 187.654 156.194 181.737L171.037 10.4776C171.285 7.6116 172.634 5.01402 174.835 3.16295C177.036 1.31125 179.831 0.42836 182.69 0.677826L263.593 7.6981C266.458 7.9463 269.054 9.29594 270.904 11.4988C272.754 13.701 273.635 16.4924 273.387 19.3591L258.545 190.619C258.06 196.22 253.348 200.459 247.83 200.459Z" fill="#F5FBF1"/>
<path d="M44.5641 248.188C41.7304 248.188 39.2726 246.078 38.9081 243.192L22.8859 116.364L36.3557 123.65C35.1586 127.978 34.7763 132.586 35.3647 137.242C37.5202 154.306 52.0495 166.776 68.8026 166.776C70.213 166.776 71.6411 166.687 73.0768 166.505C81.8732 165.393 89.777 161.426 95.3941 155.581L122.889 170.452L130.614 231.596C131.009 234.725 128.794 237.582 125.666 237.978L49.8758 247.562L45.2872 248.142C45.0443 248.173 44.8028 248.188 44.5641 248.188ZM98.1368 192.253L63.8345 196.591L64.3284 200.496L98.6307 196.158L98.1368 192.253ZM115.14 178.656L62.4114 185.324L62.9047 189.229L115.634 182.561L115.14 178.656ZM117.909 131.029L107.118 125.023C104.867 108.07 90.3907 95.7081 73.7076 95.7081C72.2978 95.7081 70.8691 95.7964 69.4334 95.9782C66.0151 96.4105 62.7823 97.3394 59.7962 98.6849L19.7583 76.4012C20.6468 75.3789 21.8998 74.6676 23.3488 74.484L29.3948 73.7197L48.7744 71.2692C69.1098 81.6992 101.866 99.2958 114.782 106.281L117.909 131.029ZM111.652 81.5017L80.3126 67.2807L103.727 64.3203C103.97 64.2894 104.212 64.2742 104.45 64.2742C104.483 64.2742 104.516 64.2749 104.549 64.2755C107.341 64.3235 109.746 66.4174 110.107 69.2699L111.652 81.5017Z" fill="url(#paint7_linear_70_720)"/>
<path d="M45.9997 196.219C45.3518 196.057 44.5699 197.363 44.6178 197.745C44.6662 198.127 47.0575 200.263 47.2333 200.408C47.4091 200.555 49.1342 200.357 49.285 200.148C49.4358 199.939 49.4138 195.531 55.4381 185.872C55.7581 185.36 49.9784 188.748 47.798 198.015C47.798 198.015 46.4813 196.339 45.9997 196.219Z" fill="#6FCEC3"/>
<path d="M63.5948 189.004L63.0986 185.008L116.141 178.186L116.637 182.181L63.5948 189.004Z" fill="url(#paint8_linear_70_720)"/>
<path d="M64.2334 200.459L63.7358 196.54L98.2932 192.186L98.7908 196.105L64.2334 200.459Z" fill="url(#paint9_linear_70_720)"/>
<path d="M104.916 130.473C107.271 149.075 92.6147 164.109 73.9768 166.459C55.3396 168.811 38.322 155.637 35.9664 137.035C33.6108 118.433 46.7004 100.584 65.3372 98.2325C83.9745 95.882 102.56 111.871 104.916 130.473Z" fill="#B5571F"/>
<path d="M107.444 125.592C109.783 144.071 96.6765 160.944 78.1695 163.279C59.6625 165.615 42.7631 152.529 40.424 134.05C38.0851 115.571 51.1912 98.6984 69.6983 96.3629C88.2059 94.0274 105.105 107.114 107.444 125.592Z" fill="#F79722"/>
<path d="M98.7908 119.639L93.5238 116.746C92.2818 114.768 90.7694 112.955 89.0272 111.378C88.736 111.115 88.4094 111.003 88.0916 111.003C87.097 111.003 86.188 112.089 86.7178 113.008L69.4722 103.536C69.9773 103.444 70.4863 103.365 71.0016 103.301C72.1196 103.161 73.2313 103.093 74.329 103.093C85.2308 103.093 94.9229 109.786 98.7908 119.639Z" fill="#F9D632"/>
<path d="M74.275 163.549C74.2738 163.549 74.2719 163.549 74.2706 163.549C74.2719 163.549 74.2738 163.549 74.275 163.549ZM74.2757 163.549C75.7034 163.549 77.1497 163.462 78.6036 163.282C77.1484 163.462 75.7047 163.549 74.2757 163.549ZM78.6336 163.278C78.6368 163.277 78.642 163.277 78.6451 163.277C78.642 163.277 78.6368 163.277 78.6336 163.278ZM78.6643 163.274C78.6681 163.274 78.6733 163.273 78.6764 163.273C78.6733 163.273 78.6681 163.274 78.6643 163.274ZM78.6962 163.271C78.6994 163.27 78.7033 163.269 78.7071 163.269C78.7033 163.269 78.6994 163.27 78.6962 163.271ZM78.7269 163.266C78.7301 163.266 78.7352 163.266 78.7384 163.265C78.7346 163.266 78.7307 163.266 78.7269 163.266ZM78.7684 163.261C78.7691 163.261 78.7697 163.261 78.7703 163.261C78.7697 163.261 78.7691 163.261 78.7684 163.261ZM78.7985 163.257C78.8017 163.257 78.8048 163.256 78.808 163.256C78.8055 163.256 78.801 163.257 78.7985 163.257ZM78.8304 163.253C78.8336 163.252 78.8368 163.252 78.84 163.252C78.8368 163.252 78.8336 163.252 78.8304 163.253ZM78.8598 163.249C78.863 163.249 78.8681 163.248 78.8719 163.247C78.8674 163.248 78.8643 163.249 78.8598 163.249ZM78.8936 163.245C78.8956 163.244 78.8994 163.244 78.9019 163.244C78.8994 163.244 78.8962 163.244 78.8936 163.245ZM78.9639 163.236C78.9665 163.235 78.9677 163.235 78.9697 163.235C78.9677 163.235 78.9665 163.235 78.9639 163.236ZM78.9952 163.231C78.9984 163.231 78.9997 163.231 79.0029 163.23C79.0003 163.231 78.9978 163.231 78.9952 163.231ZM79.0291 163.227C79.0303 163.227 79.0316 163.226 79.0329 163.226C79.0316 163.226 79.0303 163.226 79.0291 163.227ZM40.46 134.666C40.4574 134.648 40.4552 134.632 40.4527 134.614C40.4552 134.632 40.4574 134.648 40.46 134.666ZM40.4258 134.415C40.424 134.403 40.4226 134.391 40.4208 134.379C40.4226 134.391 40.424 134.403 40.4258 134.415ZM40.4056 134.26C40.4053 134.259 40.4051 134.256 40.4048 134.254C40.4051 134.257 40.4053 134.259 40.4056 134.26ZM40.3996 134.213C40.399 134.21 40.3986 134.206 40.3983 134.203C40.3986 134.205 40.399 134.211 40.3996 134.213ZM40.3934 134.164C40.3929 134.16 40.3926 134.157 40.3918 134.153C40.3923 134.156 40.3929 134.16 40.3934 134.164ZM40.3871 134.114C40.3866 134.111 40.3861 134.105 40.3856 134.102C40.3861 134.107 40.3866 134.11 40.3871 134.114ZM40.3811 134.065C40.3806 134.06 40.3801 134.057 40.3796 134.052C40.3801 134.057 40.3806 134.061 40.3811 134.065ZM40.3756 134.02C40.3751 134.015 40.3746 134.01 40.3739 134.005C40.3744 134.01 40.3751 134.015 40.3756 134.02ZM40.3699 133.972C40.3694 133.967 40.3689 133.963 40.3684 133.958C40.3689 133.964 40.3694 133.967 40.3699 133.972ZM40.3642 133.922C40.3634 133.917 40.3629 133.912 40.3621 133.907C40.3629 133.913 40.3634 133.917 40.3642 133.922ZM40.3584 133.874C40.3577 133.867 40.3569 133.862 40.3562 133.855C40.3569 133.861 40.3577 133.868 40.3584 133.874ZM40.3524 133.823C40.3516 133.817 40.3511 133.811 40.3504 133.805C40.3511 133.81 40.3519 133.817 40.3524 133.823ZM40.3477 133.781C40.3467 133.772 40.3456 133.763 40.3447 133.754C40.3456 133.764 40.3467 133.771 40.3477 133.781ZM40.3422 133.732C40.3412 133.724 40.3402 133.714 40.3394 133.705C40.3402 133.714 40.3412 133.723 40.3422 133.732ZM40.3367 133.682C40.3357 133.674 40.335 133.665 40.334 133.657C40.335 133.665 40.3359 133.674 40.3367 133.682ZM40.3312 133.632C40.3304 133.625 40.3297 133.617 40.329 133.61C40.3297 133.617 40.3304 133.625 40.3312 133.632ZM40.3257 133.581C40.3249 133.574 40.3242 133.566 40.3235 133.559C40.3242 133.567 40.3249 133.573 40.3257 133.581ZM40.3212 133.539C40.3202 133.529 40.3192 133.519 40.318 133.509C40.3192 133.519 40.3202 133.529 40.3212 133.539ZM40.3165 133.492C40.3152 133.48 40.3137 133.467 40.3125 133.455C40.3137 133.467 40.315 133.48 40.3165 133.492ZM40.3112 133.442C40.31 133.43 40.3085 133.417 40.3075 133.405C40.3085 133.417 40.31 133.43 40.3112 133.442ZM40.306 133.391C40.3048 133.38 40.3037 133.371 40.3028 133.359C40.3037 133.369 40.305 133.381 40.306 133.391ZM40.3007 133.34C40.3 133.332 40.2993 133.324 40.2985 133.316C40.2993 133.324 40.3 133.332 40.3007 133.34ZM40.297 133.301C40.2958 133.288 40.2945 133.276 40.2933 133.264C40.2945 133.276 40.2958 133.288 40.297 133.301ZM40.2923 133.252C40.291 133.239 40.2897 133.226 40.2885 133.213C40.2897 133.227 40.2908 133.239 40.2923 133.252ZM40.2873 133.201C40.286 133.187 40.2848 133.175 40.2836 133.162C40.2848 133.175 40.286 133.187 40.2873 133.201ZM40.2823 133.149C40.2811 133.136 40.2798 133.121 40.2786 133.108C40.2798 133.122 40.2811 133.135 40.2823 133.149ZM40.2778 133.099C40.2753 133.072 40.2728 133.047 40.2706 133.021C40.2728 133.046 40.2753 133.073 40.2778 133.099ZM40.2703 133.018C40.2688 133.002 40.2673 132.986 40.266 132.969C40.2673 132.985 40.2688 133.002 40.2703 133.018ZM40.2653 132.962C40.2638 132.946 40.2629 132.933 40.2613 132.917C40.2629 132.932 40.2641 132.947 40.2653 132.962ZM40.2608 132.909C40.2596 132.895 40.2581 132.879 40.2571 132.865C40.2581 132.88 40.2596 132.895 40.2608 132.909ZM40.2563 132.857C40.2541 132.832 40.2519 132.805 40.2498 132.78C40.2519 132.806 40.2541 132.832 40.2563 132.857ZM40.2496 132.779C40.2484 132.761 40.2471 132.746 40.2456 132.729C40.2469 132.746 40.2484 132.762 40.2496 132.779ZM40.2448 132.719C40.2436 132.706 40.2426 132.691 40.2414 132.677C40.2426 132.691 40.2436 132.705 40.2448 132.719ZM40.2406 132.667C40.2396 132.654 40.2384 132.638 40.2374 132.624C40.2384 132.639 40.2396 132.653 40.2406 132.667ZM40.2366 132.617C40.2356 132.602 40.2344 132.586 40.2331 132.571C40.2344 132.586 40.2356 132.601 40.2366 132.617ZM40.2326 132.565C40.2294 132.521 40.2261 132.478 40.2232 132.435C40.2261 132.478 40.2294 132.521 40.2326 132.565ZM40.2227 132.429C40.2217 132.414 40.2204 132.399 40.2194 132.383C40.2206 132.399 40.2217 132.413 40.2227 132.429ZM40.2189 132.375C40.2179 132.361 40.2169 132.348 40.2159 132.334C40.2169 132.348 40.2179 132.361 40.2189 132.375ZM40.2152 132.323C40.2142 132.309 40.2132 132.294 40.2125 132.28C40.2132 132.294 40.2142 132.308 40.2152 132.323ZM40.2117 132.272C40.2099 132.246 40.2084 132.221 40.2067 132.195C40.2084 132.221 40.2099 132.245 40.2117 132.272ZM40.2062 132.186C40.2052 132.173 40.2042 132.158 40.2034 132.144C40.2045 132.159 40.2052 132.171 40.2062 132.186ZM40.2027 132.133C40.2019 132.119 40.2012 132.108 40.2002 132.094C40.2012 132.108 40.2019 132.119 40.2027 132.133ZM40.1994 132.08C40.1987 132.068 40.198 132.056 40.1972 132.044C40.198 132.056 40.1987 132.068 40.1994 132.08ZM40.1965 132.029C40.1957 132.018 40.1949 132.006 40.1944 131.996C40.1949 132.006 40.1957 132.018 40.1965 132.029ZM40.1935 131.978C40.193 131.969 40.1925 131.963 40.1919 131.956C40.1925 131.963 40.193 131.97 40.1935 131.978ZM40.1905 131.926C40.19 131.919 40.1895 131.912 40.1892 131.905C40.1897 131.913 40.19 131.919 40.1905 131.926ZM40.1882 131.885C40.1875 131.875 40.187 131.864 40.1865 131.854C40.187 131.864 40.1875 131.875 40.1882 131.885ZM40.1855 131.837C40.185 131.827 40.1842 131.816 40.1837 131.806C40.1845 131.817 40.185 131.826 40.1855 131.837ZM40.1827 131.786C40.1825 131.778 40.1817 131.767 40.1812 131.759C40.1817 131.768 40.1822 131.777 40.1827 131.786ZM40.1803 131.736C40.18 131.729 40.1795 131.723 40.1792 131.715C40.1795 131.723 40.1797 131.729 40.1803 131.736ZM40.1778 131.684C40.1773 131.679 40.177 131.673 40.1767 131.666C40.177 131.672 40.1775 131.679 40.1778 131.684ZM40.1753 131.634C40.175 131.629 40.1748 131.623 40.1745 131.618C40.1748 131.623 40.175 131.628 40.1753 131.634ZM40.1727 131.583C40.1725 131.578 40.1725 131.576 40.1723 131.571C40.1725 131.575 40.1725 131.579 40.1727 131.583ZM40.1707 131.538C40.1705 131.533 40.1702 131.529 40.17 131.524C40.1702 131.528 40.1705 131.534 40.1707 131.538ZM40.1685 131.488C40.1685 131.486 40.1682 131.481 40.168 131.478C40.1682 131.481 40.1685 131.485 40.1685 131.488ZM40.1665 131.44C40.1663 131.435 40.1663 131.432 40.166 131.428C40.1663 131.431 40.1663 131.436 40.1665 131.44ZM40.1645 131.39C40.1643 131.386 40.1643 131.383 40.164 131.38C40.1643 131.383 40.1643 131.386 40.1645 131.39ZM40.1625 131.34C40.1622 131.336 40.1622 131.335 40.1622 131.331C40.1622 131.333 40.1622 131.337 40.1625 131.34ZM40.1605 131.289C40.1605 131.288 40.1605 131.287 40.1605 131.286C40.1605 131.287 40.1605 131.288 40.1605 131.289ZM40.1588 131.242C40.1588 131.241 40.1588 131.24 40.1588 131.239C40.1588 131.24 40.1588 131.241 40.1588 131.242ZM40.157 131.193C40.157 131.192 40.157 131.191 40.157 131.191C40.157 131.192 40.157 131.192 40.157 131.193ZM40.1555 131.145V131.142C40.1555 131.143 40.1555 131.143 40.1555 131.145ZM40.154 131.096L40.1538 131.094L40.154 131.096Z" fill="#B74E1E"/>
<path d="M73.9654 163.549C73.9641 163.549 73.9622 163.549 73.961 163.549C57.2794 163.547 42.7949 151.257 40.4729 134.386C40.4703 134.368 40.4681 134.352 40.4657 134.334C40.4565 134.267 40.4476 134.2 40.439 134.133C40.4373 134.121 40.4358 134.108 40.434 134.096C40.4308 134.071 40.4279 134.047 40.4247 134.022C40.4227 134.006 40.4209 133.992 40.419 133.976C40.4187 133.975 40.4185 133.973 40.4182 133.97C40.4165 133.957 40.4145 133.942 40.413 133.929C40.4125 133.927 40.4121 133.921 40.4118 133.919C40.41 133.905 40.4086 133.892 40.4069 133.879C40.4064 133.876 40.4059 133.871 40.4054 133.868C40.4039 133.855 40.4024 133.842 40.4007 133.829C40.4002 133.824 40.3997 133.821 40.3992 133.817C40.3977 133.805 40.3962 133.792 40.3947 133.78C40.3942 133.775 40.3938 133.771 40.3933 133.766C40.392 133.756 40.3906 133.744 40.3893 133.734C40.3888 133.729 40.3881 133.723 40.3876 133.719C40.3863 133.708 40.3851 133.697 40.3836 133.686C40.3832 133.68 40.3826 133.677 40.3821 133.671C40.3807 133.66 40.3792 133.646 40.378 133.635C40.3772 133.629 40.3767 133.626 40.3759 133.62C40.3747 133.609 40.3735 133.597 40.3723 133.586C40.3715 133.58 40.3708 133.573 40.3701 133.568C40.3688 133.556 40.3675 133.546 40.3663 133.535C40.3658 133.529 40.3651 133.522 40.3644 133.516C40.3636 133.508 40.3626 133.501 40.3616 133.493C40.3606 133.482 40.3596 133.475 40.3587 133.465C40.3579 133.458 40.357 133.45 40.3562 133.443C40.3552 133.434 40.3542 133.425 40.3535 133.416C40.3525 133.408 40.3517 133.401 40.3508 133.393C40.35 133.385 40.3491 133.376 40.348 133.368C40.3473 133.359 40.3463 133.351 40.3453 133.342C40.3446 133.335 40.3438 133.327 40.3431 133.32C40.3418 133.31 40.3409 133.301 40.3399 133.291C40.3391 133.282 40.3384 133.277 40.3377 133.269C40.3369 133.262 40.3361 133.255 40.3354 133.248C40.3344 133.238 40.3334 133.228 40.3322 133.217C40.3317 133.212 40.3312 133.206 40.3307 133.201C40.3292 133.188 40.328 133.176 40.3268 133.164C40.3263 133.158 40.326 133.156 40.3255 133.151C40.3243 133.139 40.3228 133.125 40.3218 133.113C40.3213 133.109 40.3208 133.103 40.3203 133.099C40.3194 133.089 40.3181 133.077 40.3172 133.067C40.3167 133.061 40.3159 133.053 40.3151 133.047C40.3144 133.039 40.3137 133.031 40.3129 133.023C40.3124 133.018 40.312 133.012 40.3115 133.007C40.3102 132.995 40.309 132.983 40.3077 132.971C40.3075 132.966 40.307 132.963 40.3068 132.959C40.3053 132.945 40.3043 132.933 40.3031 132.919C40.3025 132.915 40.302 132.91 40.3018 132.906C40.3006 132.892 40.2993 132.88 40.2981 132.867C40.2979 132.863 40.2974 132.858 40.2969 132.855C40.2956 132.84 40.2944 132.827 40.2932 132.813C40.2929 132.81 40.2927 132.807 40.2924 132.803C40.29 132.778 40.2875 132.75 40.2853 132.725C40.2853 132.723 40.285 132.723 40.285 132.722C40.2835 132.706 40.282 132.689 40.2808 132.673C40.2805 132.671 40.2803 132.667 40.2801 132.665C40.2788 132.651 40.2776 132.635 40.2761 132.621C40.2758 132.617 40.2758 132.615 40.2756 132.612C40.2744 132.598 40.2729 132.583 40.2719 132.568C40.2714 132.565 40.2714 132.563 40.2712 132.56C40.2689 132.534 40.2667 132.508 40.2647 132.482L40.2645 132.48C40.2633 132.463 40.2618 132.447 40.2605 132.43C40.2603 132.427 40.26 132.424 40.2598 132.42C40.2586 132.406 40.2576 132.392 40.2564 132.378C40.2561 132.374 40.2559 132.371 40.2556 132.368C40.2546 132.354 40.2534 132.339 40.2524 132.324C40.2521 132.321 40.2519 132.32 40.2516 132.317C40.2507 132.301 40.2494 132.286 40.2482 132.27C40.2482 132.268 40.2479 132.267 40.2477 132.265C40.2445 132.22 40.2412 132.177 40.2383 132.133C40.2381 132.131 40.2381 132.13 40.2378 132.127C40.2368 132.111 40.2358 132.097 40.2346 132.081C40.2346 132.079 40.2343 132.075 40.2341 132.073C40.2331 132.058 40.2321 132.046 40.2311 132.031C40.2309 132.027 40.2306 132.024 40.2304 132.02C40.2294 132.005 40.2284 131.991 40.2277 131.977C40.2274 131.975 40.2272 131.971 40.2269 131.969C40.2252 131.942 40.2237 131.918 40.222 131.891C40.2217 131.888 40.2217 131.885 40.2215 131.882C40.2205 131.867 40.2198 131.855 40.2188 131.84C40.2185 131.836 40.2183 131.832 40.218 131.828C40.2173 131.814 40.2166 131.803 40.2155 131.79C40.2153 131.784 40.215 131.78 40.2148 131.775C40.2141 131.762 40.2133 131.75 40.2126 131.738C40.2123 131.734 40.2121 131.728 40.2119 131.724C40.2111 131.713 40.2104 131.701 40.2099 131.69C40.2093 131.684 40.2092 131.678 40.2089 131.672C40.2084 131.664 40.2079 131.657 40.2074 131.649C40.2069 131.64 40.2064 131.629 40.2059 131.62C40.2054 131.612 40.2052 131.606 40.2047 131.598C40.2042 131.591 40.204 131.586 40.2037 131.578C40.203 131.568 40.2024 131.557 40.2019 131.547C40.2017 131.542 40.2012 131.536 40.201 131.53C40.2005 131.518 40.2 131.509 40.1992 131.498C40.199 131.491 40.1988 131.485 40.1983 131.478C40.1978 131.469 40.1973 131.46 40.1968 131.451C40.1965 131.443 40.1962 131.436 40.1958 131.428C40.1953 131.42 40.195 131.415 40.1948 131.407C40.1943 131.396 40.1938 131.386 40.1933 131.376C40.1931 131.37 40.1926 131.363 40.1923 131.357C40.1918 131.346 40.1913 131.335 40.1909 131.325C40.1906 131.319 40.1904 131.313 40.1901 131.308C40.1896 131.297 40.1888 131.285 40.1883 131.273C40.1882 131.269 40.1882 131.265 40.1879 131.261C40.1874 131.25 40.1869 131.238 40.1864 131.228C40.1861 131.224 40.1859 131.218 40.1856 131.213C40.1852 131.201 40.1847 131.19 40.1842 131.177C40.1842 131.174 40.1839 131.171 40.1837 131.167C40.1832 131.154 40.1827 131.142 40.1822 131.128C40.182 131.124 40.182 131.12 40.1817 131.117C40.1812 131.104 40.1807 131.091 40.1802 131.078C40.18 131.074 40.18 131.071 40.1797 131.068C40.1792 131.054 40.1787 131.041 40.1782 131.027C40.178 131.025 40.178 131.021 40.178 131.019C40.1773 131.005 40.1768 130.991 40.1763 130.976C40.1763 130.975 40.1763 130.974 40.1763 130.974C40.1757 130.959 40.1751 130.943 40.1745 130.929C40.1745 130.928 40.1745 130.927 40.1745 130.926C40.174 130.911 40.1733 130.895 40.1728 130.88C40.1728 130.878 40.1728 130.878 40.1728 130.877C40.1723 130.861 40.1718 130.847 40.1713 130.83C40.1713 130.829 40.1713 130.829 40.1713 130.828C40.1706 130.812 40.1703 130.797 40.1698 130.781L40.1696 130.779C40.1201 129.166 40.1874 127.57 40.3636 126.003L47.7484 129.984C47.7572 131.005 47.8257 132.034 47.9575 133.072C49.6343 146.306 60.9397 155.977 73.9749 155.977C75.072 155.977 76.1837 155.908 77.3005 155.768C81.3302 155.26 85.0303 153.866 88.23 151.808L95.6043 155.783C90.9444 159.643 85.1936 162.301 78.7741 163.21C78.7418 163.214 78.7095 163.219 78.6779 163.223C78.6766 163.223 78.6754 163.224 78.6741 163.224C78.6652 163.225 78.657 163.226 78.6481 163.227C78.645 163.227 78.6437 163.227 78.6406 163.228C78.6323 163.229 78.6235 163.231 78.6152 163.232C78.6133 163.232 78.6121 163.232 78.6095 163.233C78.5893 163.235 78.5684 163.238 78.5482 163.241C78.5456 163.241 78.5419 163.241 78.54 163.242C78.5324 163.243 78.5254 163.244 78.5184 163.245C78.5146 163.245 78.5096 163.246 78.5064 163.246C78.5001 163.247 78.4931 163.248 78.4868 163.249C78.4836 163.25 78.4805 163.25 78.4773 163.25C78.4697 163.251 78.4628 163.252 78.4552 163.253C78.452 163.253 78.4488 163.254 78.4457 163.255C78.4362 163.256 78.4273 163.256 78.4178 163.258C78.4172 163.258 78.4166 163.258 78.4159 163.258C78.4064 163.26 78.3957 163.261 78.3862 163.262C78.383 163.263 78.378 163.263 78.3748 163.263C78.3679 163.265 78.3615 163.265 78.3552 163.266C78.3514 163.267 78.3476 163.267 78.3444 163.268C78.3375 163.268 78.3318 163.269 78.3248 163.27C78.3217 163.27 78.3166 163.271 78.3128 163.272C78.3058 163.272 78.3008 163.273 78.2938 163.274C78.2907 163.275 78.2856 163.275 78.2824 163.275C78.2723 163.277 78.2628 163.278 78.2527 163.279C76.8126 163.461 75.3802 163.549 73.966 163.549H73.9654Z" fill="#F68623"/>
<path d="M74.2288 155.276C61.0939 155.276 49.7021 145.569 48.0125 132.285C47.8797 131.243 47.8107 130.21 47.8018 129.185L64.2294 138.007L64.0095 138.035L64.5737 142.468L67.6525 142.082L68.2549 146.814L72.7178 146.254L72.2142 142.295L88.5929 151.091C85.3688 153.157 81.6404 154.556 77.5798 155.066C76.4545 155.207 75.3344 155.276 74.2288 155.276Z" fill="#FABB29"/>
<path d="M67.7758 147.003L67.2025 142.216L64.2732 142.607L63.7363 138.122L63.9456 138.094L71.5428 142.432L72.022 146.436L67.7758 147.003Z" fill="#F57E21"/>
<path d="M64.1924 101.184L59.9116 98.5237C61.3401 97.8053 62.8292 97.2031 64.3732 96.7287C64.2536 98.2087 64.1935 99.6951 64.1924 101.184Z" fill="#F68623"/>
<path d="M94.5122 108.821C94.2939 108.821 94.0583 108.757 93.8189 108.614C92.9061 108.066 92.2281 107.156 91.4882 106.408C90.6685 105.579 91.4524 104.365 92.3455 104.365C92.6047 104.365 92.8729 104.468 93.1135 104.711C93.8074 105.413 94.502 106.115 95.1959 106.817C96.0488 107.68 95.443 108.821 94.5122 108.821Z" fill="#F9AA20"/>
<path d="M93.0549 117.094L86.2012 113.365C85.6676 112.448 86.583 111.365 87.5845 111.365C87.9046 111.365 88.2335 111.476 88.5268 111.739C90.2812 113.312 91.8042 115.12 93.0549 117.094Z" fill="#FAE750"/>
<path d="M115.362 105.639C102.392 98.6858 69.4977 81.1711 49.0767 70.7896L80.7477 66.8197L112.219 80.9745L115.362 105.639Z" fill="url(#paint10_linear_70_720)"/>
<path d="M123.011 169.913L95.604 155.123C96.0322 154.678 96.4465 154.223 96.8477 153.756C104.498 146.646 108.729 136.09 107.319 124.947C107.31 124.875 107.3 124.802 107.29 124.73L118.046 130.704L122.19 163.432L123.011 169.913Z" fill="url(#paint11_linear_70_720)"/>
<path d="M95.7762 155.276L95.6045 155.179C96.0406 154.799 96.4655 154.407 96.8792 154.003C96.5235 154.438 96.156 154.862 95.7762 155.276Z" fill="#A96D2A"/>
<path d="M95.5646 155.276L95.5608 155.274C98.7959 152.575 101.5 149.288 103.531 145.599C100.79 145.404 98.0883 145.006 95.4529 144.347C99.0481 139.209 100.823 132.762 99.9772 126.042C99.7043 123.874 99.1742 121.8 98.4214 119.85L107.417 124.876C107.427 124.948 107.437 125.021 107.445 125.094C108.853 136.278 104.631 146.873 96.9987 154.01C96.5332 154.445 96.0552 154.867 95.5646 155.276ZM65.1381 104.785C65.0522 103.586 65.0095 102.385 65.0108 101.184L69.3682 103.619C67.9065 103.892 66.4931 104.284 65.1381 104.785Z" fill="#F9AB29"/>
<path d="M95.8835 144.458C91.8874 143.477 88.0414 141.92 84.4375 139.602C84.9198 139.318 85.3894 138.972 85.8258 138.551C86.9508 137.465 88.2075 135.511 87.805 132.371C87.536 130.272 86.6269 128.553 85.1779 127.395C86.264 125.956 86.7438 124.091 86.4691 121.949C86.0673 118.81 84.357 117.225 82.9937 116.45C81.5964 115.655 80.1034 115.425 78.8378 115.425C78.5433 115.425 78.2615 115.437 77.9958 115.458L77.6955 113.115L74.9004 113.463L75.1988 115.793L73.6546 115.985L73.3563 113.656L70.5612 114.004L70.8596 116.334L68.7928 116.591L68.3239 112.935L66.3294 113.184C65.6547 110.464 65.2133 107.687 65.0107 104.896C66.3907 104.395 67.8301 104.002 69.3186 103.73L86.7227 113.277C86.7949 113.402 86.8927 113.523 87.0205 113.638C90.4154 116.707 92.8227 120.664 93.9554 125.067C94.1368 125.771 94.6856 126.075 95.2516 126.075C96.1071 126.075 97.0022 125.38 96.7274 124.313C96.0675 121.747 95.0025 119.29 93.5912 117.045L98.9066 119.961C99.6733 121.911 100.213 123.984 100.491 126.153C101.352 132.873 99.5449 139.32 95.8835 144.458ZM96.6865 128.719C96.3831 128.719 96.0707 128.804 95.803 128.972C94.6141 129.72 95.3641 131.694 95.2178 132.841C95.1053 133.725 95.8618 134.204 96.6271 134.204C97.3548 134.204 98.0901 133.77 98.0927 132.841C98.2262 131.793 98.1559 130.746 97.9643 129.709C97.8423 129.045 97.2813 128.719 96.6865 128.719ZM80.1839 136.401C80.1079 136.334 80.0318 136.267 79.9558 136.2C78.1363 134.585 76.4753 132.823 74.9771 130.942L79.4748 130.382C79.6818 130.356 79.8804 130.318 80.0804 130.282C80.1583 130.28 80.2382 130.278 80.3187 130.278C81.0234 130.278 81.7792 130.404 82.3286 130.836C83.0058 131.37 83.2486 132.268 83.3329 132.929C83.5392 134.537 82.887 135.167 82.6729 135.374C82.1267 135.901 81.2438 136.265 80.1839 136.401ZM72.0377 126.776C71.1024 125.272 70.2559 123.715 69.5001 122.114L69.3576 121.001L78.0469 119.918C78.3158 119.885 78.5778 119.868 78.8301 119.868C79.5802 119.868 80.242 120.016 80.741 120.3C81.0004 120.448 81.7913 120.897 81.9977 122.506C82.2423 124.419 81.4061 125.495 79.4045 125.881C79.2365 125.895 79.078 125.898 78.903 125.92L72.0377 126.776Z" fill="#F9DF42"/>
<path d="M83.9569 139.367C82.5328 138.427 81.1469 137.36 79.8058 136.158C80.8401 136.021 81.7018 135.657 82.2348 135.129C82.4437 134.921 83.0802 134.29 82.8789 132.678C82.7966 132.016 82.5596 131.116 81.8988 130.581C81.3626 130.148 80.625 130.021 79.9373 130.021C79.8588 130.021 79.7808 130.023 79.7048 130.025C79.5096 130.061 79.3157 130.099 79.1137 130.125L74.7245 130.687C73.6883 129.351 72.7325 127.957 71.8559 126.511L78.5557 125.654C78.7265 125.632 78.8812 125.628 79.0451 125.615C80.9985 125.228 81.8146 124.149 81.5758 122.232C81.3744 120.619 80.6026 120.168 80.3494 120.021C79.8625 119.736 79.2166 119.587 78.4846 119.587C78.2384 119.587 77.9827 119.604 77.7203 119.638L69.2404 120.723L69.3794 121.839C68.0633 118.972 67.029 115.966 66.2852 112.888L68.2316 112.639L68.6893 116.303L70.7062 116.045L70.415 113.711L73.1427 113.361L73.4339 115.696L74.9408 115.503L74.6497 113.168L77.3773 112.819L77.6704 115.167C77.9297 115.146 78.2047 115.134 78.4921 115.134C79.7272 115.134 81.1843 115.365 82.5478 116.161C83.8783 116.939 85.5473 118.527 85.9395 121.673C86.2076 123.82 85.7394 125.689 84.6795 127.132C86.0935 128.293 86.9807 130.015 87.2432 132.119C87.636 135.266 86.4096 137.224 85.3117 138.313C84.8858 138.735 84.4276 139.081 83.9569 139.367Z" fill="#F8A023"/>
<path d="M36.4782 123.457L23.0123 116.098L18.529 80.24C18.317 78.5429 18.8566 76.925 19.8856 75.729L59.9119 98.2392C58.1525 99.0399 56.4789 99.9865 54.9049 101.062C45.8695 105.364 39.1477 113.704 36.4782 123.457Z" fill="url(#paint12_linear_70_720)"/>
<path d="M40.1073 125.367L36.3291 123.331C39.0068 113.685 45.7494 105.438 54.8126 101.184C46.7098 106.642 41.2214 115.457 40.1073 125.367Z" fill="#A96D2A"/>
<path d="M40.1541 125.367L40.1538 125.366C41.2693 115.547 46.7644 106.813 54.8771 101.405C56.4579 100.351 58.1387 99.4233 59.9057 98.6387L59.912 98.6424C49.0765 103.452 41.4873 113.632 40.1541 125.367Z" fill="#F9AB29"/>
<path d="M95.2369 155.276L87.8837 151.31C90.7404 149.472 93.1959 147.102 95.1284 144.358C97.7789 145.016 100.496 145.415 103.253 145.609C101.21 149.295 98.4905 152.579 95.2369 155.276ZM47.5175 129.539L40.1538 125.568C41.4819 113.744 49.0422 103.485 59.8365 98.6387L64.5122 101.233C64.5109 102.433 64.5538 103.633 64.6402 104.831C54.3955 108.591 47.4216 118.456 47.5175 129.539Z" fill="#F89A26"/>
<path d="M88.3302 151.458L72.0573 142.721L71.9591 141.952L74.0089 141.695L74.2642 143.701L77.0355 143.354L76.7802 141.347L78.3112 141.154L78.5665 143.162L81.3377 142.814L81.0806 140.794C82.0371 140.629 83.1772 140.302 84.2553 139.661C87.8285 141.975 91.6418 143.53 95.6039 144.509C93.6637 147.252 91.1984 149.62 88.3302 151.458ZM64.1242 138.461L47.8027 129.698C47.7065 118.621 54.7082 108.76 64.9939 105.002C65.1947 107.79 65.6324 110.563 66.3013 113.279L63.8449 113.587L64.3092 117.238L61.2503 117.622L61.8109 122.026L64.8698 121.642L66.9645 138.105L64.1242 138.461ZM71.3986 137.548L70.6346 131.545L74.8755 131.013C76.3609 132.89 78.0078 134.65 79.8118 136.263C79.8872 136.33 79.9626 136.397 80.0379 136.463C80.0303 136.465 80.0221 136.466 80.0139 136.466L71.3986 137.548ZM70.0677 127.09L69.445 122.197C70.1944 123.795 71.0337 125.35 71.961 126.852L70.0677 127.09Z" fill="#FCCA38"/>
<path d="M74.167 143.185L73.9123 141.17L71.8679 141.428L71.9658 142.2L64.0534 137.924L66.8863 137.566L64.797 121.036L61.7461 121.421L61.187 117L64.2379 116.614L63.7748 112.948L66.2248 112.639C66.9786 115.718 68.0267 118.725 69.3604 121.593L69.9814 126.506L71.8698 126.267C72.7581 127.714 73.7266 129.108 74.7766 130.444L70.5468 130.979L71.3088 137.007L79.9016 135.921C79.9099 135.92 79.9181 135.919 79.9256 135.917C81.2846 137.12 82.6891 138.187 84.132 139.128C83.0568 139.771 81.9195 140.1 80.9656 140.265L81.2221 142.294L78.458 142.643L78.2034 140.627L76.6764 140.821L76.931 142.836L74.167 143.185Z" fill="#F79323"/>
<path d="M95.331 126.003C94.7569 126.003 94.2003 125.7 94.0163 125C92.8676 120.621 90.4262 116.687 86.9831 113.635C86.8535 113.52 86.7544 113.399 86.6812 113.275L93.647 117.023C95.0783 119.255 96.1584 121.699 96.8277 124.251C97.1063 125.311 96.1985 126.003 95.331 126.003Z" fill="#F9ED62"/>
<path d="M95.9097 134.276C95.1086 134.276 94.3168 133.831 94.4345 133.011C94.5876 131.946 93.8025 130.113 95.0471 129.418C95.3273 129.263 95.6543 129.184 95.9719 129.184C96.5945 129.184 97.1817 129.486 97.3094 130.103C97.5101 131.066 97.5836 132.038 97.4439 133.01C97.4412 133.873 96.6715 134.276 95.9097 134.276Z" fill="#F9ED62"/>
<path d="M105.2 57.4594C104.784 57.4594 104.363 57.4853 103.94 57.5384L22.9522 67.7317C17.4843 68.4204 13.5978 73.4106 14.289 78.8557L35.944 249.477C36.2786 252.115 37.6246 254.465 39.7347 256.094C41.8445 257.724 44.4671 258.44 47.1138 258.105L128.101 247.911C130.75 247.578 133.11 246.237 134.746 244.136C136.382 242.035 137.099 239.426 136.764 236.787L115.109 66.1654C114.472 61.1424 110.158 57.4594 105.2 57.4594ZM45.8386 259.006C43.452 259.006 41.1458 258.224 39.2291 256.744C36.9452 254.979 35.488 252.435 35.1257 249.58L13.4704 78.9587C12.7226 73.0638 16.9297 67.6622 22.8488 66.9167L103.836 56.7233C109.753 55.979 115.179 60.1681 115.928 66.0624L137.583 236.685C137.945 239.54 137.169 242.365 135.398 244.639C133.627 246.914 131.072 248.365 128.205 248.725L128.153 248.318L128.205 248.725L47.2174 258.919C46.7561 258.977 46.2959 259.006 45.8386 259.006Z" fill="#F5FBF1"/>
<defs>
<linearGradient id="paint0_linear_70_720" x1="188.022" y1="237.369" x2="239.011" y2="237.369" gradientUnits="userSpaceOnUse">
<stop stop-color="#7331C6"/>
<stop offset="0.942708" stop-color="#E62EDE"/>
</linearGradient>
<linearGradient id="paint1_linear_70_720" x1="54.1753" y1="24.182" x2="105.164" y2="24.182" gradientUnits="userSpaceOnUse">
<stop stop-color="#D63AA5"/>
<stop offset="0.997995" stop-color="#D792CF"/>
<stop offset="1" stop-color="#D792CF"/>
</linearGradient>
<linearGradient id="paint2_linear_70_720" x1="237.231" y1="-11.4245" x2="198.57" y2="183.379" gradientUnits="userSpaceOnUse">
<stop stop-color="#FFA5E3"/>
<stop offset="1" stop-color="#2B1567"/>
</linearGradient>
<linearGradient id="paint3_linear_70_720" x1="236.658" y1="-7.09201" x2="200.065" y2="182.647" gradientUnits="userSpaceOnUse">
<stop stop-color="#D05AB4"/>
<stop offset="1" stop-color="#8568BB"/>
</linearGradient>
<linearGradient id="paint4_linear_70_720" x1="237.131" y1="-13.362" x2="197.584" y2="183.906" gradientUnits="userSpaceOnUse">
<stop stop-color="#D05AB4"/>
<stop offset="1" stop-color="#8568BB"/>
</linearGradient>
<linearGradient id="paint5_linear_70_720" x1="237.056" y1="-12.5261" x2="197.38" y2="184.594" gradientUnits="userSpaceOnUse">
<stop stop-color="#D94CAE"/>
<stop offset="1" stop-color="#655DB4"/>
</linearGradient>
<linearGradient id="paint6_linear_70_720" x1="236.954" y1="-11.9605" x2="198.191" y2="183.016" gradientUnits="userSpaceOnUse">
<stop stop-color="#D94CAE"/>
<stop offset="1" stop-color="#655DB4"/>
</linearGradient>
<linearGradient id="paint7_linear_70_720" x1="86.9491" y1="263.767" x2="61.7751" y2="46.3945" gradientUnits="userSpaceOnUse">
<stop stop-color="#4641A1"/>
<stop offset="0.00134342" stop-color="#4641A1"/>
<stop offset="0.997313" stop-color="#62CDF5"/>
<stop offset="1" stop-color="#62CDF5"/>
</linearGradient>
<linearGradient id="paint8_linear_70_720" x1="87.7821" y1="265.275" x2="61.5916" y2="42.951" gradientUnits="userSpaceOnUse">
<stop stop-color="#5E4AA8"/>
<stop offset="0.00134342" stop-color="#5E4AA8"/>
<stop offset="0.997313" stop-color="#7DD5F3"/>
<stop offset="1" stop-color="#7DD5F3"/>
</linearGradient>
<linearGradient id="paint9_linear_70_720" x1="87.0223" y1="263.963" x2="61.8477" y2="45.7702" gradientUnits="userSpaceOnUse">
<stop stop-color="#5E4AA8"/>
<stop offset="0.00134342" stop-color="#5E4AA8"/>
<stop offset="0.997313" stop-color="#7DD5F3"/>
<stop offset="1" stop-color="#7DD5F3"/>
</linearGradient>
<linearGradient id="paint10_linear_70_720" x1="87.4122" y1="262.391" x2="62.5707" y2="45.9803" gradientUnits="userSpaceOnUse">
<stop stop-color="#444BA7"/>
<stop offset="0.00134342" stop-color="#444BA7"/>
<stop offset="0.997313" stop-color="#67CEEF"/>
<stop offset="1" stop-color="#67CEEF"/>
</linearGradient>
<linearGradient id="paint11_linear_70_720" x1="87.1861" y1="262.721" x2="62.203" y2="46.5161" gradientUnits="userSpaceOnUse">
<stop stop-color="#444BA7"/>
<stop offset="0.00134342" stop-color="#444BA7"/>
<stop offset="0.997313" stop-color="#67CEEF"/>
<stop offset="1" stop-color="#67CEEF"/>
</linearGradient>
<linearGradient id="paint12_linear_70_720" x1="87.0571" y1="264.998" x2="61.3686" y2="45.4784" gradientUnits="userSpaceOnUse">
<stop stop-color="#444BA7"/>
<stop offset="0.00134342" stop-color="#444BA7"/>
<stop offset="0.997313" stop-color="#67CEEF"/>
<stop offset="1" stop-color="#67CEEF"/>
</linearGradient>
</defs>
</svg>
